<?xml version="1.0" encoding="utf-8"?>
<!-- Generator: Adobe Illustrator 18.0.0, SVG Export Plug-In . SVG Version: 6.00 Build 0)  -->
<!DOCTYPE svg PUBLIC "-//W3C//DTD SVG 1.1//EN" "http://www.w3.org/Graphics/SVG/1.1/DTD/svg11.dtd">
<svg version="1.1" id="Layer_1" xmlns="http://www.w3.org/2000/svg" xmlns:xlink="http://www.w3.org/1999/xlink" x="0px" y="0px"
	 viewBox="0 0 20 19.5" enable-background="new 0 0 20 19.5" xml:space="preserve">
<g>
	<g>
		<path fill="#4A81B7" d="M13.8,0c0,0.8,0.7,2,1.5,2c0.8,0,1.5-1.2,1.5-2"/>
		<path fill="#4A81B7" d="M19.8,0.1h-2.3v0.8c0,1.3-1,2.3-2.3,2.3c-1.3,0-2.3-1-2.3-2.3V0.1H7v0.8c0,1.3-1,2.3-2.3,2.3
			s-2.3-1-2.3-2.3V0.1L0.1,0V19h1.5h16.7l1.5,0L19.8,0.1z M18.3,17.5H1.7V5.4h16.7L18.3,17.5L18.3,17.5z"/>
		<path fill="#4A81B7" d="M3.2,0c0,0.8,0.7,2,1.5,2c0.8,0,1.5-1.2,1.5-2"/>
		<rect x="7" y="7" fill="#4A81B7" width="2.4" height="2.1"/>
		<rect x="3.2" y="7" fill="#4A81B7" width="2.4" height="2.1"/>
		<rect x="10.8" y="7" fill="#4A81B7" width="2.4" height="2.1"/>
		<rect x="14.4" y="7" fill="#4A81B7" width="2.4" height="2.1"/>
		<rect x="7" y="10.5" fill="#4A81B7" width="2.4" height="2.1"/>
		<rect x="10.8" y="10.5" fill="#4A81B7" width="2.4" height="2.1"/>
		<rect x="14.4" y="10.5" fill="#4A81B7" width="2.4" height="2.1"/>
		<rect x="7" y="14" fill="#4A81B7" width="2.4" height="2.1"/>
		<rect x="3.2" y="10.5" fill="#4A81B7" width="2.4" height="2.1"/>
		<rect x="3.2" y="14" fill="#4A81B7" width="2.4" height="2.1"/>
		<rect x="10.8" y="14" fill="#4A81B7" width="2.4" height="2.1"/>
		<rect x="14.4" y="14" fill="#4A81B7" width="2.4" height="2.1"/>
	</g>
	<g>
		<linearGradient id="SVGID_1_" gradientUnits="userSpaceOnUse" x1="7.0214" y1="17.2735" x2="13.9978" y2="9.8351">
			<stop  offset="0" style="stop-color:#A92523"/>
			<stop  offset="1" style="stop-color:#ED1C24"/>
		</linearGradient>
		<circle fill="url(#SVGID_1_)" cx="10" cy="14.1" r="5.1"/>
		<text transform="matrix(1 0 0 1 8.683 16.9783)" fill="#FFFFFF" font-family="'MyriadPro-Bold'" font-size="9.8138">!</text>
	</g>
	<path fill="#F68C22" d="M19.8,0.1h-2.3v0.8c0,1.3-1,2.3-2.3,2.3c-1.3,0-2.3-1-2.3-2.3V0.1H7v0.8c0,1.3-1,2.3-2.3,2.3
		s-2.3-1-2.3-2.3V0.1L0.1,0v5.3h1.5h16.7l1.5,0L19.8,0.1z M18.3,3.9H1.7v1.5h16.7L18.3,3.9L18.3,3.9z"/>
</g>
</svg>
