<?xml version="1.0" encoding="utf-8"?>
<!-- Generator: Adobe Illustrator 18.0.0, SVG Export Plug-In . SVG Version: 6.00 Build 0)  -->
<!DOCTYPE svg PUBLIC "-//W3C//DTD SVG 1.1//EN" "http://www.w3.org/Graphics/SVG/1.1/DTD/svg11.dtd">
<svg version="1.1" id="Layer_1" xmlns="http://www.w3.org/2000/svg" xmlns:xlink="http://www.w3.org/1999/xlink" x="0px" y="0px"
	 viewBox="0 0 2156 502.9" enable-background="new 0 0 2156 502.9" xml:space="preserve">
<g>
	<path fill="#1CB04E" d="M5.9,287.4c2.1-1,1.4-3.1,1.9-4.8c5.5-20.4,22.8-34.1,43.9-34.2c136.5-0.1,273-0.1,409.5,0
		c20.8,0,34.2,11.4,42.9,29.3c14.5,32.5-8.3,68.5-43.7,68.8c-1.8,0-3.6,0-5.4,0.2c-10.2,0-20.3,0.2-30.5-0.1
		c-16.7,0.3-33.5,0.3-50.2,0c-16.3,0.3-32.7,0.2-49,0c-10.1,0.2-20.2,0.2-30.3,0c-15.9,0.3-31.8,0.3-47.7,0
		c-19.5,0.4-39,0.2-58.4,0.1c-10-0.1-20.1,0.3-30.1-0.1c-9.1,0.2-18.2,0.2-27.3,0c-8.2,0.2-16.4,0.2-24.6,0
		c-10.6,0.2-21.2,0.3-31.8,0c-8.9-0.1-17.7,0.3-26.6-0.2c-12.8-0.7-22.8-6.8-30.8-16.6c-5.9-6.8-8.3-15.4-11.9-23.3
		c0-0.5,0-0.9,0-1.4c1.2-5.5,1.2-10.9,0-16.4C5.9,288.3,5.9,287.9,5.9,287.4z"/>
	<path fill="#009BD9" d="M5.9,172.8c3.3-6.5,4.5-14,9.3-20c10.3-12.8,23.3-18.6,39.7-18.5c48.4,0.2,96.8,0.1,145.2,0.1
		c19.1,0,38.2,0.5,57.3-0.1c23.2-0.8,38.9,9.8,48.6,30.3c6.2,19,5.2,36.8-9.1,52.2c-5.3,5.7-11.6,9.9-18.8,12.8
		c-9.8,3.5-19.9,2.4-30,2.5c-13.4,0.3-26.8,0.3-40.2,0c-12.3,0.2-24.5,0.3-36.8,0c-13.1,0.2-26.2,0.3-39.3,0
		c-5.2,0.2-10.3,0.2-15.5,0c-11.5,0.2-23.1,0.3-34.6,0c-8.3,0.1-16.7-0.5-25,0.1c-14.2,1-26.1-3.6-36.2-13.2
		c-6.9-7.9-11.2-17.3-14.6-27.1c0-0.5,0-0.9,0-1.4c1.2-5.5,1.2-10.9,0-16.4C5.9,173.7,5.9,173.3,5.9,172.8z"/>
	<path fill="#8CD7A5" d="M5.9,288.8c2.2,5.5,2.2,10.9,0,16.4C5.9,299.7,5.9,294.3,5.9,288.8z"/>
	<path fill="#7FCCEB" d="M5.9,174.2c2.2,5.5,2.2,10.9,0,16.4C5.9,185.1,5.9,179.6,5.9,174.2z"/>
	<path d="M2150.1,322.6c0,15.8,0,30.7,0,45.7c0,2.4-0.2,4.2-3.1,5.2c-30,10.4-60.5,14.7-91.6,6.6c-23.6-6.2-34.9-23.6-39.7-46.3
		c-2.7-12.7-3.9-25.6-3.8-38.6c0-24.8-0.1-49.6,0.1-74.3c0-4.5-1.1-5.8-5.6-5.7c-10.7,0.2-21.4,0.1-32-0.5c-5.5-0.3-7.2,1-7.2,6.9
		c0.3,49.8,0,99.6,0.3,149.4c0,6.5-1,9-8.3,8.7c-16.8-0.7-33.6-0.5-50.5-0.1c-5.9,0.1-8-1.1-7.9-7.6c0.3-50,0-100,0.3-150.1
		c0-6.3-1.8-7.7-7.6-7.2c-6.1,0.5-12.3-0.1-18.4,0.2c-3.3,0.1-4.3-1-4.3-4.2c0.2-12.5,0.1-25,0-37.5c0-3.2,0.8-4.4,4.2-4.3
		c6.4,0.2,12.8-0.4,19.1,0.2c6,0.5,7-1.7,6.9-7.2c-0.3-13.2-0.9-26.4,1.8-39.4c6.2-30.7,26.6-49.4,59.1-54.7
		c18.8-3.1,37.5-2,56.3,0.9c3.9,0.6,4.7,2,4.6,5.6c-0.2,13.4-0.3,26.8,0,40.2c0.1,4.6-1.1,5.8-5.6,4.9c-8-1.6-16.1-2.7-24.3-1.7
		c-13.8,1.7-20.5,7.8-23.6,21.5c-1.9,8.5-1.7,17.1-2.1,25.7c-0.1,3.5,1.3,4.1,4.4,4.1c6.4-0.2,12.7,0.1,19.1-0.1
		c3.6-0.2,4.9,0.9,4.6,4.6c-0.3,3.6-0.1,7.3-0.1,12.3c3.6-3.6,6.5-6.5,9.3-9.5c19.8-21.3,39.6-42.5,59.1-64.1
		c3.6-3.9,7.4-3.7,11.6-3.6c3.9,0.1,2.5,3.2,2.5,5.1c0.1,16.6,0.2,33.2,0,49.8c-0.1,4.5,1.1,5.7,5.6,5.6c19.8-0.2,39.6,0.2,59.3-0.3
		c5.9-0.1,7.1,1.7,6.9,7.2c-0.5,10.9-0.4,21.8,0,32.7c0.2,5.1-0.9,6.9-6.5,6.8c-19.8-0.4-39.6-0.1-59.3-0.2c-4,0-6.1,0.4-6,5.4
		c0.4,27,0.1,54.1,0.7,81.1c0.5,24.7,10.6,33,35.5,31C2126.2,331.8,2137.6,327.9,2150.1,322.6z"/>
	<path d="M580.1,224c0-49.3,0.1-98.7-0.1-148c0-5.2,1.1-6.8,6.6-6.8c64.8,0.2,129.6,0.2,194.4,0c5,0,7.1,0.8,6.9,6.5
		c-0.5,14.8-0.6,29.6,0,44.3c0.3,6.5-2.1,7.2-7.6,7.2c-38.7-0.2-77.3,0-116-0.2c-5,0-6.5,1-6.4,6.2c0.4,16.8,0.4,33.7,0,50.5
		c-0.1,4.9,1.4,5.9,6.1,5.8c36.8-0.2,73.7,0.1,110.5-0.3c6.5-0.1,7.8,2,7.6,7.9c-0.4,14.3-0.5,28.7,0,43c0.3,6.6-2.1,7.6-8,7.6
		c-36.6-0.2-73.2,0-109.8-0.2c-4.8,0-6.6,0.7-6.5,6.1c0.4,20.5,0.3,40.9,0,61.4c-0.1,5,1,6.4,6.3,6.4c40.2-0.2,80.5,0,120.7-0.3
		c5.3,0,6.9,1.3,6.7,6.7c-0.4,15.5-0.3,30.9,0,46.4c0.1,4.2-1.1,5.4-5.3,5.4c-67.1-0.1-134.2-0.2-201.2,0.1c-5.5,0-5.1-2.7-5.1-6.3
		C580.1,323.6,580.1,273.8,580.1,224z"/>
	<path d="M1115.2,195.5c23.1-24.6,50.3-33,81.5-29.8c32.7,3.4,53.8,23.6,59,56.1c1.4,9,2.1,18,2.1,27.1c0,41.4-0.1,82.8,0.1,124.1
		c0,4.9-0.9,6.7-6.3,6.6c-18.2-0.4-36.4-0.4-54.6,0c-5.3,0.1-6.3-1.7-6.3-6.6c0.2-39.8,0.2-79.6,0.1-119.4c0-5.2-0.3-10.5-1.3-15.6
		c-4.2-21.4-18.5-30.1-39.5-24c-16.5,4.8-26.3,17.2-34.3,31.3c-1,1.8-0.6,4.4-0.6,6.7c0,40.2-0.1,80.5,0.1,120.7c0,5-0.8,7-6.5,6.9
		c-18.2-0.4-36.4-0.3-54.6-0.1c-4.2,0.1-5.3-1.2-5.3-5.4c0.1-99.8,0.1-199.6,0-299.4c0-4.6,1.5-5.6,5.8-5.6
		c18.2,0.2,36.4,0.3,54.6,0c4.8-0.1,6,1.1,6,6c-0.2,37.3-0.1,74.6-0.1,111.9C1115.2,189.3,1115.2,191.5,1115.2,195.5z"/>
	<path d="M1492,321.3c16.9,7.6,33.1,14,50.3,17.4c11.7,2.4,23.5,2.7,35-0.9c5.6-1.8,10.5-4.7,11.4-11.3c0.9-6.9-2.5-11.9-8-15.4
		c-10.2-6.4-21.5-10.7-32.5-15.4c-13.5-5.6-26.1-12.6-37.6-21.6c-35.7-27.9-25.8-77.2,7.9-96.8c15.6-9.1,32.6-12.3,50.3-12.4
		c23.6-0.2,46.4,4.4,68,14.5c3.5,1.6,5.2,3.3,5.1,7.5c-0.3,13.4-0.1,26.8-0.1,40.7c-5.9-1.1-10.4-4.4-15.4-6.7
		c-15-6.8-30.3-12.2-46.8-13.6c-7.3-0.6-14.6-0.3-21.3,2.9c-10.5,5.1-11.6,14.9-2.4,22c11.8,9.2,25.7,14.1,39.4,19.7
		c9.8,4,19.7,8.1,28.8,13.6c21.5,13,30.5,32.2,28.6,56.8c-1.9,24.2-13.6,41.9-35.8,52.2c-17.5,8.2-36.2,9.7-55.2,9.4
		c-22.2-0.4-43.7-4.1-64.2-13c-3.9-1.7-5.5-3.6-5.4-7.9C1492.2,349.5,1492,335.8,1492,321.3z"/>
	<path fill="#EE3E35" d="M139.5,404.4c-1.2-19,19.8-41,40.7-40.7c2.2-1,4.5-0.5,6.7-0.5c90.8,0,181.5,0,272.3,0
		c2.2,0,4.5-0.5,6.7,0.6c18.5,1.8,29.9,13.1,38.1,28.6c1.4,2.8,2.1,5.8,2.9,8.8c0.7,6.2,0.2,12.4,0.3,18.6
		c-2.1,14.4-8.3,26.3-21.2,34.1c-10.8,6.5-22.8,7.5-35,7.3c-13.7,0.3-27.4,0.3-41,0c-6.9,0.2-13.9,0.2-20.8,0
		c-14.5,0.3-29,0.3-43.6,0c-26.7,0.3-53.5,0.3-80.2,0c-20.1,0.2-40.2,0.3-60.2,0c-7.9-0.2-15.8,0-23.7-0.4
		c-13.1-0.7-23.2-6.5-31.3-16.5c-5.7-7.8-11.1-15.7-10.6-25.9C138.5,413.8,138.7,409.1,139.5,404.4z"/>
	<path fill="#FEF100" d="M174.8,102c-17.3-19.5-13.5-50.4-3.2-63.3c9.4-11.7,21.1-18.6,36.2-18.6c84.7-0.1,169.4-0.2,254.2,0.1
		c21.3,0.1,34.7,12.4,42.9,31.2c12.5,30.9-8.6,65.2-40.6,66.1c-80.5,0-160.9,0-241.4,0c-4.1,0-8.2,0-12.3,0.3
		C195.8,118.9,184,113.5,174.8,102z"/>
	<path fill="#CACAC6" d="M465.4,116.2c26.1-3,45.6-25.5,40.5-57.5c-0.4-2.5-0.7-4.9-1-7.4c7.4,9.6,7,21,5.3,31.7
		c-3.9,24.8-21.8,39.2-46.8,39.2c-37.4,0-74.8-0.1-112.3-0.2c-1.6-2-4.1-3.9-0.1-5.9C389.1,116.2,427.3,116.2,465.4,116.2z"/>
	<path fill="#C8C9CB" d="M456.2,345c21.6,0.3,38-8.2,46.8-28.4c5.5-12.6,4.1-25.7,1.1-38.7c9.7,13,8.7,39.7-1.5,53.9
		c-9,12.4-21.3,19.5-36.3,19.6c-56.1,0.4-112.3,0.1-168.4,0.1c-0.3-0.9-0.1-1.7,0.8-2.1c9.3-2.4,18.8-0.8,28.2-1.1
		c15.8-0.3,31.5-0.3,47.3,0c16.5-0.2,32.9-0.3,49.4,0c8.1,0.1,16.2,0.1,24.3,0C451.1,348.2,454.4,348.4,456.2,345z"/>
	<path fill="#C3C1C4" d="M452.1,459.4c11.8,0,23.4-1.1,33.9-7.2c2.6,1.1,4.5,2.5,2.9,5.7c-7.1,6.9-16.4,7.9-25.2,7.9
		c-91.3,0.3-182.7,0.2-274,0.3c-1.8,0-3.7,0.3-5.2-1.1c6.5-4.5,13.8-1.6,20.8-2.2c20-0.3,40-0.3,59.9,0c27.2-0.3,54.4-0.3,81.6,0
		c14.1-0.3,28.1-0.3,42.2,0c6.8-0.2,13.7-0.2,20.5,0c10.9-0.2,21.8,0,32.7-0.1C445.8,462.7,449.5,462.8,452.1,459.4z"/>
	<path fill="#B7B7B7" d="M465.4,116.2c-2.4,1.2-4.9,0.6-7.4,0.6c-36.1,0.1-72.2,0.1-108.3,0.2c-2.2,1.9-5,2-7.7,2
		c-15.6,0-31.1,0.3-46.6-0.1c-14.3,0.2-28.5,0.3-42.8,0c-8.1,0-16.1,0-24.2,0c-3.3,0-6.3,0.4-8.3,3.3c-16.7,1.6-31.2-2.6-42.5-15.7
		c-1.2-1.4-2.5-2.6-2.8-4.5c11.4,11.3,25.3,14.3,41.1,14.2c80.7-0.4,161.3-0.2,242-0.2C460.4,116,462.9,116.1,465.4,116.2z"/>
	<path fill="#B7B7BA" d="M248.8,230.4c10-0.7,20.3,0.9,30-2.7c1.9,1.9,3.1,3.9,1.4,6.5c-5.6,1.8-11.4,2.8-17.3,2.7
		c-67.8,0-135.7,0.1-203.5,0c-3.3,0-6.8,0.8-9.9-1.2c2-2.4,4.9-2.3,7.6-2.3c8-0.1,15.9-0.3,23.9,0.1c11.8-0.2,23.6-0.3,35.4,0
		c5.6-0.2,11.2-0.1,16.9,0c12.6-0.3,25.3-0.3,37.9,0c12.1-0.2,24.2-0.3,36.4,0c10.5-0.2,21.1,0,31.6-0.1
		C242.5,233.5,246.2,233.5,248.8,230.4z"/>
	<path fill="#EE4137" d="M465.9,363.8c-95.2,0-190.5,0-285.7-0.1c2.1-1.1,4.5-0.6,6.7-0.6c90.8,0,181.6,0,272.4,0
		C461.4,363.1,463.8,362.5,465.9,363.8z"/>
	<path fill="#C7C7C9" d="M488.9,457.9c0.2-2.5-2.2-3.7-2.9-5.7c10.6-7.7,17.5-17.7,19.3-30.9c1-6.9,1-13.9,0-20.8
		c-0.5-2.7-0.9-5.4-1.4-8.1c7.4,8.9,7.4,19.7,6.6,30.2C509.4,437.9,503,450.4,488.9,457.9z"/>
	<path fill="#C3C3C6" d="M295.2,117.1c18.2,0,36.4,0,54.5,0c0.5,1.7,0.9,3.4,1.4,5.1c-18.6,0-37.3,0-55.9,0
		C293.7,120.5,293.7,118.8,295.2,117.1z"/>
	<path fill="#95989C" d="M80.9,235.6c-10.5,0.1-21.1,0.1-31.6,0.2c-12.2-1.1-21.6-7.1-28.8-16.8c1.7,0,2.9,1.1,4.1,2.1
		c8,6,16.9,9.3,27.1,9.1c9.7-0.2,19.5,0.1,29.2,0.2C82.4,232.1,82.3,233.8,80.9,235.6z"/>
	<path fill="#BBBEC1" d="M295.2,216.7c14.2-15.2,14-33.3,10.8-52.1c10.9,16.4,6.8,46.4-8.1,58.8C295.8,221.6,293.5,220,295.2,216.7z
		"/>
	<path fill="#8D8F91" d="M17.8,329.9c13.5,14.1,30.7,16,48.9,14.9c2.5-0.1,5,0.1,7.5,0.2c1.6,1.9,3.7,3.7,0.3,5.9
		c-8.4-0.2-16.8,0.6-25.1-0.4C35.3,349,25.1,341.6,17.8,329.9z"/>
	<path fill="#9E9A9D" d="M205.1,464.7c-6.9,0.1-13.8,0.3-20.6,0.4c-15.1-0.7-26.3-8-34.2-20.6c12.7,13.1,28.8,15.7,46.1,14.8
		c2.5-0.1,5,0.1,7.5,0.2C205.1,460.9,206.9,462.3,205.1,464.7z"/>
	<path fill="#BEBEC1" d="M295.2,117.1c0,1.7,0,3.4,0,5.1c-14.6,0-29.1,0-43.7,0c-1.4-1.7-1.4-3.4,0-5.1
		C266.1,117.1,280.6,117.1,295.2,117.1z"/>
	<path fill="#B9BABC" d="M251.5,117.1c0,1.7,0,3.4,0,5.1c-10.5,0-20.9,0-31.4,0c-1-3.2-1.4-5.5,3.5-5.3
		C232.9,117.2,242.2,117,251.5,117.1z"/>
	<path fill="#B8BABD" d="M295.2,216.7c0.9,2.2,1.8,4.4,2.7,6.6c-4.7,5.6-10.8,8.9-17.7,10.8c-0.5-2.2-0.9-4.3-1.4-6.5
		C284.9,224.9,290.2,221,295.2,216.7z"/>
	<path fill="#B6B6B9" d="M201,351.4c-22.3,0-44.6,0-66.8,0c-0.3-0.9,0-1.6,0.9-2.1c8.3-2.3,16.8-0.6,25.2-1.1
		c8.8-0.1,17.7-0.2,26.5,0.1c4.5,0.2,9.1-0.7,13.5,1.1C201.1,349.8,201.4,350.5,201,351.4z"/>
	<path fill="#C0C1C4" d="M201,351.4c0-0.4,0-0.8,0.1-1.1c2.1-2.2,4.9-2.2,7.6-2.2c13.1,0,26.3-0.3,39.4,0.1c5.9,0.2,11.9-1,17.7,1.1
		c0.9,0.5,1.1,1.2,0.8,2.1C244.7,351.4,222.8,351.4,201,351.4z"/>
	<path fill="#B0B1B4" d="M134.2,350.2c0,0.4,0,0.7,0,1.1c-17.3,0-34.6,0-51.9,0c-0.3-0.9,0-1.6,0.8-2.1c7.8-2.2,15.8-0.8,23.8-1.1
		c8-0.1,16-0.4,23.9,0.2C132.2,348.7,133.3,349.2,134.2,350.2z"/>
	<path fill="#A9AAAD" d="M82.3,350.3c0,0.4,0,0.7,0,1.1c-11-0.2-22,1.5-33-1c8.7-0.1,17.4-0.2,26.1-0.2
		C77.8,348.5,80.1,348.1,82.3,350.3z"/>
	<path fill="#C4C5C7" d="M266.5,351.4c0-0.4,0-0.8,0-1.2c3.7-3.2,8.2-2,12.3-2.1c5.6-0.1,11.3-0.6,16.9,0.6c0.8,0.3,1.6,0.8,2.1,1.5
		c0,0.4,0,0.8,0,1.2C287.4,351.4,277,351.4,266.5,351.4z"/>
	<path fill="#EE4137" d="M139.5,404.4c0,4.7,0.1,9.4,0.1,14.1C138.3,413.8,138.5,409.1,139.5,404.4z"/>
	<path fill="#6BC076" d="M494.2,274c3.2,2.8,3.9,6.7,4.2,10.7c-2.3,2.4-5.4,2-8.3,2c-155.3,0-310.6,0-465.9-0.1
		c-3.7,0-10.1,2.1-8.8-6c0.3-2.1,1-4,2.7-5.5c3.5-2.9,7.8-2.2,11.8-2.2c54.6,0,109.1,0,163.7,0c95.7,0,191.4,0,287.1,0
		C485.3,272.9,489.8,272.8,494.2,274z"/>
	<path fill="#78C480" d="M494.2,274c-2.1,2-4.8,1.1-7.2,1.1c-156.3,0-312.6,0-468.9,0c0.4-3.4,3-5.1,5.4-7c3.8-0.3,7.7-0.4,11.6-0.4
		c148.3,0,296.7,0,445,0c3.4,0,6.8-0.1,10.2,0.6C493,269.2,492.6,272.3,494.2,274z"/>
	<path fill="#60BC6D" d="M15.5,280.6c-0.2,2.8,0.9,4.3,3.9,4.1c1.8-0.1,3.6,0,5.5,0c157.9,0,315.7,0,473.6,0
		c1.1,0.6,1.3,1.6,1.3,2.7c-0.6,1.3-1.5,2.3-2.9,2.8c-2.9,1-5.8,0.6-8.8,0.6c-154.5,0-308.9,0-463.4,0c-3.4,0-6.8,0.6-10-1.2
		c-1.7-1.5-1.4-3.2-0.7-5C14.1,283.2,13.9,281.6,15.5,280.6z"/>
	<path fill="#27B251" d="M499.8,306.5c-0.4,5.4-4,5.5-8.2,5.5c-38.2-0.1-76.3,0-114.5,0c-118.1,0-236.3,0-354.4-0.1
		c-3.3,0-7.8,1.6-8.5-4c3.5-3,7.8-1.9,11.8-1.9c153.7-0.1,307.4-0.1,461.1,0C491.2,306,495.6,305.3,499.8,306.5z"/>
	<path fill="#40B65A" d="M14,284.7c0,1.4,0,2.7,0.1,4.1c1,1.1,1.6,2.5,1.8,4c0.2,1.2,0.6,2.2,1.6,2.9c3.5,1.4,7.2,0.7,10.8,0.7
		c152.7,0,305.5,0,458.2,0.1c4,0,8.3-1,11.8,1.9c0.5,0.9,0.9,1.8,1.4,2.7c-0.7,0.6-1.5,1.1-2.3,1.4c-2.6,0.9-5.4,0.6-8.1,0.6
		c-155.2,0-310.4,0-465.6,0c-2.7,0-5.5,0.3-8.1-0.6c-1.4-0.5-2.2-1.6-2.9-2.8C13.4,294.7,11.2,289.5,14,284.7z"/>
	<path fill="#2EB354" d="M12.8,299.7c0.4,0.5,0.9,0.9,1.3,1.4c2,2.5,4.9,2,7.6,2c156.4,0,312.8,0,469.2,0c2.7,0,5.5,0.4,7.6-2
		c0.4,0,0.9,0,1.3,0c0,1.8,0,3.6,0,5.5c-3.1,2-6.6,1.4-10,1.4c-158.6,0-317.2,0-475.8,0C12.5,305.4,12.7,302.5,12.8,299.7z"/>
	<path fill="#46B85E" d="M498.4,298.3c-158.8,0-317.6,0-476.3-0.1c-2.7,0-6.6,2.1-8-2.6c3.6-2.9,7.8-1.9,11.8-1.9
		c141.3-0.1,282.7,0,424,0c13,0,25.9,0,38.9,0c2.9,0,5.9-0.4,8.7,1c0.3,0.3,0.7,0.6,1,0.9C498.5,296.5,498.4,297.4,498.4,298.3z"/>
	<path fill="#80C786" d="M490.3,268.3c-2,2.2-4.7,1.3-7.1,1.3c-150.9,0-301.8,0-452.6,0c-2.4,0-5.1,0.9-7-1.5
		c0.4-0.4,0.8-0.9,1.2-1.3c3.3-1.7,7-1.9,10.6-1.9c148.2,0,296.4,0,444.7,0c2.5,0,5,0.1,7.5,0.6
		C488.4,266.5,489.4,267.4,490.3,268.3z"/>
	<path fill="#83C889" d="M487.5,265.6c-1.6,1.9-3.8,1.3-5.7,1.3c-152.3,0-304.7,0-457-0.1c0.9-0.9,1.9-1.8,2.8-2.7
		c3.6-1.8,7.4-1.9,11.3-1.9c145.7,0,291.3,0,437,0c3,0,5.9,0.3,8.8,0.8C486,263.5,487,264.3,487.5,265.6z"/>
	<path fill="#89CA8D" d="M484.7,263.1c-1.7,1.7-3.8,1.1-5.8,1.1c-150.4,0-300.9,0-451.3,0c0.8-1.6,2.1-2.6,4-2.8
		c3.4-1.6,7-1.8,10.6-1.8c142.4,0,284.7,0,427.1-0.1c3.9,0,7.5,1.5,11.4,0.8C482.3,260.8,483.8,261.5,484.7,263.1z"/>
	<path fill="#8CCB90" d="M480.6,260.3c-1.6,1.8-3.8,1.2-5.8,1.2c-147.3,0-294.6,0-442,0c-0.5,0-0.9,0-1.4-0.1
		c1.8-2.5,4.3-3.5,7.2-3.9c59.8-0.3,119.6-0.1,179.4-0.1c66.9,0,133.7,0,200.6,0c18.8,0,37.7-0.2,56.5,0.2
		C477,258.5,478.8,259.4,480.6,260.3z"/>
	<path fill="#91CD94" d="M475.2,257.6c-2.1,2-4.8,1.1-7.2,1.1c-140.7,0-281.4,0-422.2,0c-2.4,0-5,0.9-7.1-1.2
		c2.4-1.7,5.2-1.5,7.9-1.5c139.8,0,279.5,0,419.3,0C469.1,256,472.2,256.2,475.2,257.6z"/>
	<path fill="#A8A8AC" d="M248.8,350.2c-15.9,0-31.8,0-47.7,0.1c-4.6,0-9.1-0.1-13.7-0.1c-1.6-2.3-1.1-4,1.4-5.2
		c19.6,0,39.1,0,58.7,0C248.9,346.4,250.5,347.9,248.8,350.2z"/>
	<path fill="#C0C1C4" d="M424.8,350.2c-16.8,0-33.7,0-50.5,0c-1.4-1.7-1.5-3.5,0-5.2c16.8,0,33.6,0,50.5,0
		C426.3,346.7,426.2,348.4,424.8,350.2z"/>
	<path fill="#B9BABC" d="M374.3,345c0,1.7,0,3.5,0,5.2c-15.9,0-31.8,0-47.7,0c-1.4-1.5-2.2-3.1-1.3-5.2C341.6,345,358,345,374.3,345
		z"/>
	<path fill="#B0B1B4" d="M248.8,350.2c-0.4-1.7-0.9-3.5-1.3-5.2c15.9,0,31.8,0,47.7,0c1.4,1.5,2.4,3.1,1.3,5.2c-10,0-20,0-30,0.1
		C260.6,350.2,254.7,350.2,248.8,350.2z"/>
	<path fill="#C4C5C7" d="M424.8,350.2c0-1.7,0-3.5,0-5.2c10.5,0,21,0,31.4,0c2.1,3.7,1.1,5.3-3.2,5.3
		C443.6,350.1,434.2,350.2,424.8,350.2z"/>
	<path fill="#96969A" d="M82.3,350.3c-2.3,0-4.6-0.1-6.9-0.1c-0.4-1.7-0.9-3.5-1.3-5.2c10.9,0,21.8,0,32.7,0c1.5,1.7,1.4,3.5,0,5.2
		C98.7,350.2,90.5,350.2,82.3,350.3z"/>
	<path fill="#B6B6B9" d="M296.5,350.2c-0.9-1.6-1.6-3.3-1.3-5.2c10,0,20,0,30.1,0c1,1.6,1.5,3.3,1.3,5.2c-9.5,0-19.1,0-28.6,0.1
		C297.4,350.2,297,350.2,296.5,350.2z"/>
	<path fill="#A0A1A4" d="M188.7,345c-1,1.6-1.5,3.3-1.4,5.2c-9.1,0-18.2,0-27.3,0c-2.2-1.3-3.2-2.9-1.3-5.2
		C168.7,345,178.7,345,188.7,345z"/>
	<path fill="#9E9FA2" d="M158.7,345c-0.2,1.9,0.5,3.6,1.3,5.2c-8.6,0-17.3,0.1-25.9,0.1c-0.9,0-1.8-0.1-2.8-0.1
		c-1.4-1.7-1.5-3.5,0-5.2C140.5,345,149.6,345,158.7,345z"/>
	<path fill="#97979A" d="M131.5,345c0,1.7,0,3.5,0,5.2c-8.2,0-16.4,0-24.5,0c0-1.7,0-3.5,0-5.2C115.1,345,123.3,345,131.5,345z"/>
	<path fill="#40B65A" d="M498.5,288.8c0.4-0.5,0.9-0.9,1.3-1.4c-0.3,2.8,1.2,5.8-1.3,8.2c0,0-0.1,0-0.1,0c-0.7-0.8-1.2-1.8-1.4-2.9
		C496.9,291.2,497.4,289.9,498.5,288.8z"/>
	<path fill="#12A3DD" d="M295.1,159.2c2.5,2.1,3.6,5,4.2,8.1c1.7,3.5-0.2,5.1-3.3,5.8c-2.7,0.6-5.4,0.5-8.1,0.5
		c-20.2,0-40.4,0.7-60.6-0.1c-67.6-2.7-135.2-0.5-202.8-1.3c-3.5,0-7.3,0.7-10.3-2.2c1.2-4.4,2.1-8.9,5.5-12.3
		c26.5,1.1,53.1,0.4,79.6,0.5c29.3,0.1,58.5-0.4,87.8,0.2c34.9,0.7,69.8,1.6,104.8,1.2C292.9,159.6,294,159.8,295.1,159.2z"/>
	<path fill="#42ACE1" d="M295.1,159.2c-0.6,3.9-3.8,2.6-6,2.6c-22.3,0.1-44.6,0.8-66.8-0.1c-65.1-2.7-130.3-0.3-195.4-1.3
		c-2.5,0-6.2,1.9-7.3-2.6c1.8-2.8,4-5.1,6.7-6.9c2.7-0.5,5.4-0.5,8.1-0.5c38,0,76,0.3,113.9-0.1c44.3-0.5,88.6,2.2,132.9,1.3
		c3-0.1,5.9,0.4,8.5,2C292.4,154.8,293.2,157.5,295.1,159.2z"/>
	<path fill="#049FDB" d="M14.1,170.1c63.8,0,127.6-0.8,191.4,0.4c29,0.5,58,0.6,87,1c2.9,0,6.9,1.3,6.7-4.1c3.3,9.2,2.2,10.9-7,10.9
		c-24.1,0-48.2,0.8-72.2-0.1c-67-2.6-133.9-0.4-200.9-1.1C13.8,176.9,11,176,14.1,170.1z"/>
	<path fill="#56B1E3" d="M37.3,144.2c3.3-2.2,7-2.8,11-2.8c72.2,0.1,144.3,0.1,216.5,0c5.6,0,10.5,1.8,15.4,4.1
		c-0.5,3.6-3.6,3.2-5.8,3.1c-21.3-0.4-42.7,1.5-64-1c-2.3-0.3-4.5-0.1-6.8-0.1c-52.3,0-104.6,0-156.9-0.1
		C43.3,147.5,39.1,148.9,37.3,144.2z"/>
	<path fill="#54B0E3" d="M37.3,144.2c2.3,2.3,5.2,1.3,7.8,1.3c41.8,0.1,83.5,0.2,125.3,0c34-0.2,68,2.5,102,1.4
		c2.6-0.1,5.5,1,7.8-1.3c1.4,0.9,2.7,1.8,4.1,2.7c-0.8,3.8-3.9,3.4-6.4,3.3c-21.3-0.2-42.6,0.7-63.9-0.5c-9.3-0.5-18.6-0.1-27.9-0.1
		c-49.2,0-98.4,0-147.7-0.1c-2.7,0-6.5,1.7-7.9-2.7C32,145.7,34.5,144.6,37.3,144.2z"/>
	<path fill="#4BADE1" d="M30.4,148.2c2,2.3,4.6,1.4,7,1.4c79.9,0,159.9,0,239.8,0c2.4,0,5.1,0.9,7.1-1.3c2.4,1.2,4.1,3.2,5.5,5.4
		c-22.2,0-44.5,0.8-66.7-0.1c-63.5-2.7-126.9-0.4-190.4-1.2c-2.2,0-4.6,0.7-6.3-1.4C27.2,149.2,28.5,148.3,30.4,148.2z"/>
	<path fill="#B0B1B4" d="M248.8,230.4c0.6,4.3-1.6,5.4-5.6,5.3c-11.8-0.2-23.6-0.1-35.4-0.1c-1.4-1.7-1.5-3.5,0-5.2
		C221.5,230.4,235.1,230.4,248.8,230.4z"/>
	<path fill="#A6A6AA" d="M171,235.5c-12.7,0-25.5,0-38.2,0c-1.3-1.5-3.1-2.9-1.3-5.2c13.2,0,26.4,0,39.6,0
		C172.5,232.1,172.4,233.8,171,235.5z"/>
	<path fill="#ABACB0" d="M171,235.5c0-1.7,0-3.5,0-5.2c12.3,0,24.6,0,36.8,0c0,1.7,0,3.5,0,5.2C195.5,235.5,183.3,235.5,171,235.5z"
		/>
	<path fill="#A0A1A4" d="M80.9,235.6c0-1.7,0-3.5,0-5.2c11.8,0,23.6,0,35.5,0c1.5,1.7,1.4,3.5,0,5.2
		C104.6,235.6,92.8,235.6,80.9,235.6z"/>
	<path fill="#A1A2A6" d="M116.4,235.5c0-1.7,0-3.5,0-5.2c5,0,10,0,15,0c0.4,1.7,0.9,3.5,1.3,5.2
		C127.3,235.5,121.9,235.5,116.4,235.5z"/>
	<path d="M1033.3,250.2c-8.4-61.9-67.5-99.6-127.1-81.4c-11.1,3.4-20.8,9.6-30.9,17.3c0-4.5-0.3-7.9,0.1-11.1c0.5-4.8-1.2-6.1-6-6
		c-17.3,0.3-34.6,0.3-51.8,0c-4.8-0.1-6,1.3-6,6.1c0.1,100.7,0.1,201.5,0,302.2c0,5.1,1.8,5.8,6.3,5.8c18-0.2,35.9-0.3,53.9,0
		c5.1,0.1,6.3-1.2,6.3-6.3c-0.3-34.6-0.1-69.1-0.1-103.7c0-2.4,0-4.8,0-8.1c14.6,11.5,30.2,17.3,47.5,18.8
		c40.8,3.7,77.7-13,97.2-51.1C1035.9,306.4,1037.1,278.5,1033.3,250.2z M963.7,293.5c-9.9,41.2-55.6,47.5-83.7,26.9
		c-2.3-1.7-2.2-3.7-2.2-5.9c0-27,0.1-54-0.1-81.1c0-3.4,1.2-5.4,4-7c18.1-11,37.3-15.2,56.8-5c21.1,11,27.3,30.8,27.4,50.7
		C965.7,281,965.2,287.3,963.7,293.5z"/>
	<path d="M1832.2,181.1c-18.7-11.3-39.5-15.5-61.1-16.4c-4.3,0.2-8.6,0.4-12.9,0.6c-60.2,2.8-103.1,44.2-105.9,100.7
		c-2.3,45.1,13.7,80.8,54,103.6c21.2,12,44.4,14.8,68.4,14c58.7-1.9,102.9-40.8,108.1-95C1887,244.4,1871.8,205,1832.2,181.1z
		 M1805.7,311.1c-16.9,29.1-56.2,30.5-75.2,2.7c-14.3-21.1-14-58.6,0.8-79.4c19.8-27.9,59.8-24.8,75.6,5.9c6.2,12,7.6,25,7.4,38.2
		C1813.9,290.1,1811.6,301,1805.7,311.1z"/>
	<path d="M1345.7,286.1c45,0.4,90,0,135,0.4c6.5,0.1,7.7-2,7-7.6c-0.7-5.9-0.7-11.8-1.4-17.6c-4.3-35.4-18.6-64.9-50.6-83.2
		c-22.8-13-47.8-15-73.3-11.9c-39,4.8-67.9,23.9-83.9,60.6c-8.1,18.6-8.8,38.3-7.8,58.2c2.3,43.6,27.6,78.1,67.2,91.9
		c18.1,6.3,36.8,7.9,55.7,7.2c30.3-1,58.6-8.7,84.6-24.5c2.6-1.6,4.7-2.9,4.7-6.7c-0.3-12.9-0.1-25.9-0.1-40.2
		c-3.4,2.1-5.9,3.6-8.3,5.2c-27.6,17.1-57,26.6-90,21.5c-25-3.9-43.4-22.4-45.6-45.5C1338.5,288.6,1338.9,286,1345.7,286.1z
		 M1381.5,210.4c18.1-0.9,33.7,13.3,37.9,34.4c0.5,2.6,0.8,5.3,1.3,8.8c-26,0-51.7,0-77.3,0.1c-3.2,0-3.6-1-3.3-4
		C1342.2,227.3,1358.8,211.5,1381.5,210.4z"/>
	<path fill="#EF4C3C" d="M145.1,418.4c0-1.8,0-3.6,0-5.5c11.8-0.7,23.5-1.8,35.3-1.8c102.3-0.2,204.6-0.1,306.9-0.1
		c3.8,0,7.8-1,11.2,1.8c1.3,8,1,8.3-7.5,8.3c-63,0-126,0-188.9,0c-39.8,0-79.6,0.1-119.4-0.1c-9.5,0-19,1.6-28.6,0.9
		C150.7,421.7,147.2,422,145.1,418.4z"/>
	<path fill="#F37960" d="M161.4,377.4c3.2-2.7,7-4.3,11-5.4c2.4-1.2,4.9-0.6,7.4-0.6c95.6,0,191.2,0,286.8,0c2.4,0,5-0.8,7.3,0.8
		c1.9,1.9,5.3,1.4,6.8,4c1.3,3.3-1.3,3.9-3.4,4.4c-2.2,0.6-4.5,0.3-6.8,0.3c-100.2,0.1-200.4-0.2-300.7,0.1
		C166.7,381,162.9,381.8,161.4,377.4z"/>
	<path fill="#F05C47" d="M497.1,396.6c0.5,0.5,0.9,0.9,1.4,1.4c0.9,3,1.4,6-0.4,8.9c-3.1,2-6.6,1.3-10,1.3
		c-100.7-0.1-201.4,0.3-302.1,0.3c-10.9,0-21.8,0.5-32.7-0.2c-3.7-0.2-8.5,0.2-7.1-6.2c1.7-1.3,3.5-2.1,5.7-2
		c10.7,0.7,21.2-1.6,31.9-1.5c101.5,0.9,203.1-2.1,304.6-1.2c2.5,0,5,0.1,7.5-0.6C496.2,396.7,496.7,396.7,497.1,396.6z"/>
	<path fill="#F16750" d="M494.4,389.8c1.8,1.9,2.1,4.4,2.7,6.8c0,0,0,0,0,0c-1.1,0.9-2.4,1.3-3.8,1.3c-1.6,0.1-3.2,0.1-4.8,0.1
		c-103.2-0.5-206.4,1.2-309.6,0.7c-8.2,0-16.2,2.2-24.4,1.4c-3.6-0.3-6.9-0.5-8-4.8c0.5-1.3,1.4-2.2,2.6-2.8c1.4-1.3,3.1-2.1,5-1.9
		c8.9,0.6,17.6-1.4,26.5-1.4c101.4,0.1,202.8-0.1,304.3-0.1C488.1,389.1,491.3,389,494.4,389.8z"/>
	<path fill="#EF5542" d="M146.5,402c-0.4,4.1,2.3,4.1,5.3,4.1c9.7-0.1,19.4,0,29.1,0c105.9,0,211.8,0,317.6,0
		c0.9,1.7,1.2,3.4-0.6,4.8c-2.4,0.9-4.9,0.6-7.4,0.6c-104.4-0.4-208.9,1.1-313.3,0.7c-8.4,0-16.8,0.8-25.2,0.8
		c-4.2,0-6.2-1.6-6.9-5.6c0.3-2.3-0.9-4.9,1.3-6.8c0.4,0.3,0.5,0.6,0.4,0.9C146.7,401.9,146.6,402,146.5,402z"/>
	<path fill="#F26F57" d="M487.6,381.6c1.8,1,3.2,2.3,4.1,4.1c-1.7,4.8-5.9,3.3-9.2,3.3c-33.8,0.1-67.6-0.2-101.5,0.1
		c-68.5,0.7-137.1,0.6-205.6,0.6c-5.7,0-11.3,1.2-17,0.6c-2.6-0.2-5.7,0.5-6.5-3.3c1.8-2.2,3.6-4.4,5.4-6.6c2.9,1.6,6.2,1.8,9.3,1.4
		c12.5-1.6,25-0.8,37.4-0.9c92.2-0.1,184.5,0.1,276.7-0.2C483.1,380.8,485.3,381.2,487.6,381.6z"/>
	<path fill="#F2745B" d="M487.6,381.6c-2.5,2.5-5.6,1.3-8.4,1.3c-99.3,0.1-198.7,0-298,0.1c-6.3,0-12.6,0.9-18.9,1.3
		c-2.8,0.2-5.1-0.2-4.8-3.9c1.3-1,2.7-2,4-3c2,2.3,4.7,1.4,7.1,1.4c101.6,0,203.3,0.1,304.9,0c2.5,0,6.2,1.9,7.3-2.6
		C483.4,377.4,486.2,378.6,487.6,381.6z"/>
	<path fill="#F1624C" d="M146.5,402c0-0.5,0-0.9,0-1.4c0-1.8,0.1-3.6,0.1-5.4c6.6,5.5,14.3,2.3,21.5,2.2c3.9-0.1,8-0.9,12.1-0.9
		c105.6,0,211.3,0,316.9,0c-1.1,4.5-4.8,2.6-7.3,2.6c-48.2,0.1-96.4-1.1-144.5,0.4c-56.6,1.7-113.1,0.1-169.6,1.3
		C165.9,401.1,156.2,402,146.5,402z"/>
	<path fill="#F26C54" d="M152,387.1c2,2.2,4.7,1.3,7.1,1.3c55.6,0.1,111.3,1.2,166.9-0.3c53.3-1.5,106.6-0.2,160-1
		c2,0,4.2,0.6,5.7-1.3c0.9,1.4,1.8,2.7,2.8,4.1c-2.5,2.5-5.6,1.3-8.4,1.3c-101.9,0.1-203.7,0-305.6,0.1c-10.4,0-20.7,2.2-31.2,1.4
		C149,390.2,149.4,388.1,152,387.1z"/>
	<path fill="#EE4137" d="M145.1,418.4c2.5,1.5,5.2,1.4,7.9,1.4c112.7,0,225.4,0,338.1,0.1c5.3,0,8.4-0.8,7.4-6.9
		c0.2-0.2,0.5-0.3,0.7-0.5c0.2,0.2,0.5,0.3,0.7,0.5c0,9.5,0,9.6-9.3,9.6c-103.2,0-206.3,0-309.5,0c-9.7,0-18.8,4.3-28.7,2.9
		C147.8,424.7,145,423.4,145.1,418.4z"/>
	<path fill="#EF503F" d="M145.1,407.5c1.6,3.1,3.8,4.2,7.5,4.2c58.4-0.2,116.8,1.1,175.1-0.5c57-1.5,113.9-0.2,170.8-1
		c0.8,0.9,0.8,1.8,0,2.7c-105.9,0-211.8,0-317.7,0c-9.3,0-18.4,2.3-27.8,1.5c-2.7-0.2-5.5,0.1-7.9-1.4
		C145.1,411.1,145.1,409.3,145.1,407.5z"/>
	<path fill="#ACADB0" d="M346.9,464.7c-27.3,0-54.6,0-81.8,0c-1.4-1.8-1.3-3.5,0.1-5.2c26.8,0,53.7,0,80.5,0
		C347,460.9,348.8,462.4,346.9,464.7z"/>
	<path fill="#EE4137" d="M473.9,372.2c-20.7-0.1-41.4-0.2-62.1-0.2c-79.8,0-159.6,0-239.4,0c2-2.2,4.7-1.3,7.1-1.3
		c95.8,0,191.6,0,287.4,0C469.3,370.7,472,369.7,473.9,372.2z"/>
	<path fill="#A1A2A5" d="M265.2,459.4c0,1.7,0,3.5-0.1,5.2c-20,0-40,0-60,0c-0.4-1.8-0.9-3.5-1.3-5.2
		C224.2,459.4,244.7,459.4,265.2,459.4z"/>
	<path fill="#B9B9BC" d="M346.9,464.7c-0.4-1.8-0.8-3.5-1.3-5.3c14.6,0,29.1,0,43.7,0c1.4,1.8,1.4,3.5,0,5.3
		C375.2,464.7,361.1,464.7,346.9,464.7z"/>
	<path fill="#BDBEC1" d="M452.1,459.4c0.5,4-1.1,5.5-5.3,5.5c-12.3-0.2-24.7-0.1-37-0.1c-1.4-1.8-1.4-3.5,0-5.3
		C423.9,459.4,438,459.4,452.1,459.4z"/>
	<path fill="#B9B9BC" d="M409.8,459.4c0,1.8,0,3.5,0,5.3c-6.8,0-13.6,0-20.4,0c0-1.8,0-3.5,0-5.3C396.1,459.4,403,459.4,409.8,459.4
		z"/>
	<path fill="#EE4137" d="M505.4,400.5c1.7,6.9,1.9,13.9,0,20.8C505.4,414.4,505.4,407.4,505.4,400.5z"/>
	<path fill="#EF4C3C" d="M498.5,413c0-0.9,0-1.8,0-2.7c0-1.4,0-2.7,0-4.1c0-2.7,0-5.5,0-8.2c2.9,4.8,0.6,10,1.4,15
		C499.4,413,498.9,413,498.5,413z"/>
	<path fill="#FEF696" d="M183.2,36.2c6.5-6.3,14.1-9.2,23.3-9.2c83.3,0.1,166.6,0.1,250,0c8,0,15.7,0.2,22.9,4.1
		c0,1.3-0.8,2-1.9,2.4c-1.5,0.6-3.1,0.7-4.7,0.6c-20.7-0.9-41.3,1.1-61.9,1.6c-50.2,1.1-100.4,0.6-150.5,1.7
		c-20.9,0.4-41.7,0.4-62.6,0.9c-2.5,0.1-4.9,0.8-7.4,0.9C187.5,39.4,184,40.6,183.2,36.2z"/>
	<path fill="#FEF68E" d="M176.1,44.4c0.8-2.3,2.3-4.2,4.4-5.5c27.1-2.3,54.3-1.2,81.5-1.6c35.8-0.5,71.7-0.4,107.5-1.3
		c21.1-0.6,42.2,0.4,63.1-1.2c17-1.4,33.9-0.6,50.9-1.1c2.8,1.7,5.2,3.9,6.9,6.6c-1.4,4.6-5.3,3.4-8.4,3.4
		c-25-0.1-49.9-0.1-74.9,0.5c-48.8,1.2-97.6-0.7-146.3,1.8c-24.9,1.3-49.7,0.8-74.5,2C182.6,48.1,178.4,48.7,176.1,44.4z"/>
	<path fill="#FEF34E" d="M171,78.7c-1.6-7.8-2.4-15.5,0-23.3c0.5,0.4,0.9,0.9,1.2,1.5c0.3,0.9,0.4,1.9,0.5,2.9c0.1,1,0.1,2,0.1,3
		c0.1,1.4,0.1,2.7,0.2,4.1c0.1,1.1,0.3,2.2,0.9,3.2c4.1,2.1,8.6,1.3,12.7,0.9c23.6-2.4,47.2-1.2,70.8-1c37.5,0.2,75-0.9,112.4-2
		c39.5-1.1,79.1-0.2,118.6-0.9c3.4-0.1,6.9-0.6,9.9,1.5c1.3,1.6,1.1,3.3,0.1,5c-2.1,1.7-4.7,1.5-7.2,1.5
		c-35.2-0.9-70.4,0.8-105.6,1.8c-42,1.2-84.1-0.4-126,1.3c-20.7,0.8-41.3,0.4-61.9,1.1c-6.3,0.2-12.6,1.8-19,1.3
		C176,80.4,173.2,80.7,171,78.7z"/>
	<path fill="#FEF117" d="M181.9,97.8c-1.8-0.9-3.2-2.2-4.1-4.1c6-3.2,12.8-3.1,19.1-3c30.9,0.5,61.7-1.7,92.5-1.6
		c24.5,0.1,49.1,0.8,73.5-0.2c22.9-0.9,45.8,0,68.6-1.5c17.9-1.1,35.8-0.5,53.7-1c3.1-0.1,6.4-0.7,9,1.9c0,2-1,3.3-2.7,4.1
		c-2.4,2.2-5.4,2-8.4,2c-32.7-0.4-65.4,0.1-98.1,1c-42.2,1.1-84.4,0.6-126.6,2.2c-23.4,0.9-46.8-0.5-70.1,1.6
		C186.2,99.3,183.9,99.1,181.9,97.8z"/>
	<path fill="#FEF586" d="M176.1,44.4c2,1.1,4.2,1.7,6.5,1.5c1.4-0.1,2.7,0,4.1,0c61.3,0.1,122.5-3.2,183.9-3.3
		c37.4-0.1,74.8,0,112.2-0.9c2.6-0.1,5.5,1,7.7-1.5c0.9,1,1.7,1.9,2.6,2.9c-0.8,3.8-3.9,3.4-6.5,3.3c-29.5-1.8-58.8,3.4-88.4,2.9
		c-44.1-0.8-88.2-0.5-132.3,0.4c-23.2,0.5-46.3,0.6-69.5,1c-5.6,0.1-11.2,1.7-16.9,1.1c-2.3-0.3-5.3,0.4-5.7-3.3
		C173.5,46.7,174.7,45.5,176.1,44.4z"/>
	<path fill="#FEF57F" d="M173.7,48.6c4.1,2.9,8.9,1.8,13.1,1.3c19-2.4,38.1-0.3,57.1-1.2c62.4-2.9,124.9,0.5,187.2-1.9
		c19.6-0.8,39.3-1.4,58.9-2.2c1,0,2-0.8,3-1.3c1.7,1.4,2.4,3.3,2.9,5.3c-2.1,2.3-5,2-7.6,2c-39.3-0.5-78.6,0.8-117.9,1.8
		C310.2,53.8,250.1,55,190,54.7c-6,0-12.3,2-17.9-2C172.3,51.2,172.3,49.6,173.7,48.6z"/>
	<path fill="#FEF473" d="M171.1,59.6c0-0.9,0-1.8,0-2.7c2.4-2.3,5.4-1.9,8.4-2c41.1-1.4,82.4,1.6,123.4-1.2
		c44.7-3.1,89.3-0.8,133.9-2.3c20.1-0.7,40.3-0.8,60.4,0.1c0.5,0.9,0.9,1.8,1.4,2.8c0.4,1,0.1,1.7-0.8,2.3c-2.1,1.1-4.4,1.1-6.7,1
		c-35.9-0.9-71.6,2.2-107.5,1.5c-15.9-0.3-31.8-0.7-47.7,0.1c-25.8,1.3-51.7,0-77.5,1.5c-26.1,1.5-52.2,0.4-78.2,1
		C177,61.5,173.7,62,171.1,59.6z"/>
	<path fill="#FEF237" d="M173.8,88.2c0-0.9-0.1-1.8-0.1-2.7c0.8-0.9,1.8-1.7,2.9-1.6c9.6,0.7,18.6-3.3,28.2-3.2
		c33.4,0.3,66.8,0.7,100.2-0.3c21.8-0.6,43.6,0.1,65.3-1.2c40.2-2.3,80.4-0.6,120.5-1.3c2.7,0,5.5,0,7.7,2c0,1.1-0.2,2.1-1.3,2.8
		c-2.2,2-5,1.9-7.8,1.9c-35-0.8-70,0.8-104.9,1.8c-41.1,1.2-82.3-0.5-123.3,1.3c-21.1,0.9-42.2,0.5-63.3,1c-5,0.1-9.8,1.8-14.9,1.4
		C179.8,90,176.6,90,173.8,88.2z"/>
	<path fill="#FEF23C" d="M498.5,80c-27,0-54.1,0.2-81.1-0.1c-32.7-0.3-65.3,0.9-98,1.9c-31.3,0.9-62.6,0.9-93.9,0.6
		c-17.4-0.2-34.5,3-51.9,3.1c-0.8-1.4-1.7-2.8-2.5-4.1c1.1-0.9,2.4-1.4,3.8-1.3c11.6,0.6,23-1.4,34.6-1.6
		c53.4-0.8,106.7-0.8,160-1.6c20.8-0.3,41.8,0.5,62.5-1.2c19.8-1.6,39.5-0.5,59.2-1.1c2.5-0.1,5.1,0.5,7.2-1.4c0-1.4,0-2.7,0-4.1
		c-0.9-1.1-1.5-2.3-1.6-3.8c-0.1-1.4-0.1-2.7-0.1-4.1c0-1,0.1-2,0.2-3.1c0.2-1,0.7-1.9,1.4-2.7c0.1-0.5,0.1-0.9,0.2-1.4
		C500.8,62.7,500.2,71.4,498.5,80z"/>
	<path fill="#FEF10B" d="M181.9,97.8c22.6-2.3,45.3-0.1,67.9-1.7c18.8-1.4,37.6-1.1,56.4-0.9c41.9,0.5,83.9-1.2,125.8-1.9
		c19.9-0.3,39.8-0.3,59.7-0.9c-0.6,5.2-4.7,4-7.9,4c-32.1,0.1-64.1-0.7-96.2,0.3c-22.5,0.7-45-0.1-67.3,1.4
		c-20.9,1.4-41.8-0.5-62.6,1.3c-22.7,1.9-45.4,0.5-68,1.1C186.8,100.6,183.6,101.3,181.9,97.8z"/>
	<path fill="#FEF695" d="M483.4,33.7c-1.1,1.5-2.8,1.3-4.4,1.3c-15.8,0.5-31.7,0.8-47.5,1c-36.1,0.3-72.2,1.1-108.2,2.2
		c-42.2,1.3-84.4,0.3-126.6,0.9c-5.4,0.1-10.9,3.9-16.3-0.1c0.9-0.9,1.8-1.8,2.7-2.7c1.4,2.1,3.7,1.9,5.6,1.4
		c8.3-2.2,16.7-0.9,25-1.2c51.9-1.8,103.9-0.6,155.8-1.8c20.8-0.5,41.7,0.4,62.5-1.3c14.3-1.1,28.5-0.6,42.8-1.1
		c1.6-0.1,3.2,0.2,4.4-1.2C480.8,31.7,482.5,32.1,483.4,33.7z"/>
	<path fill="#FEF245" d="M498.4,73.2c-0.2,1.2-0.6,2.3-1.8,2.5c-1.3,0.2-2.7,0.2-4.1,0.2c-36.7,0.5-73.5-0.1-110.1,1.6
		c-40.8,1.9-81.7-0.5-122.4,1.4c-21.1,1-42.2,0-63.2,1.3c-8.6,0.5-17.1,1.1-25.7,1.1c0-0.9-0.1-1.8-0.1-2.7
		c25.6-1.7,51.3-0.2,76.9-1.7c27.7-1.6,55.4-0.9,83.1-0.9c33.6,0,67.2-1.3,100.8-2C454,73.7,476.2,73.9,498.4,73.2z"/>
	<path fill="#FEF229" d="M173.8,88.2c25.3-1.8,50.8-0.3,76.1-1.7c18.4-1.1,36.7-1.1,55-0.9c42.4,0.6,84.8-1.1,127.1-1.9
		c21.7-0.4,43.5-0.3,65.2-0.9c0,0.9-0.1,1.8-0.1,2.7c-2,1.4-4.3,1.4-6.6,1.4c-34.5-1-69,0.8-103.5,1.8c-42.7,1.2-85.4-0.4-128,1.3
		c-20.9,0.8-41.7,0.3-62.6,1.1c-6.7,0.2-13.4,3.1-20,0C175.1,90.4,174.2,89.5,173.8,88.2z"/>
	<path fill="#FEF224" d="M176.4,91c23.7-1.9,47.6-0.2,71.3-1.7c32.6-2,65.3-0.6,97.9-1c29-0.4,58-1.1,87-1.9
		c21.5-0.6,43-0.2,64.5-0.9c-0.5,1.3-1.4,2.2-2.7,2.8c-17.2,0-34.6-1.1-51.7,0.2c-20.6,1.6-41.3-0.1-61.8,1.2
		c-38.7,2.6-77.5-0.2-116.2,1.5c-22.9,1-45.7,0.6-68.6,1.3c-6,0.2-12.1,1.5-18.2,1.2C177.4,92.8,176.9,91.9,176.4,91z"/>
	<path fill="#FEF579" d="M437.1,52.8c-37.7,0-75.6-2.3-113.1,0.6c-42.7,3.3-85.2,0.4-127.7,2.3c-8.3,0.4-16.7,1.2-25.1,1.1
		c-0.1-0.5-0.1-0.9-0.2-1.4c0.4-0.9,0.8-1.8,1.2-2.7c45.9,0,92,2.4,137.7-0.6c40.8-2.7,81.5,0.2,122.1-2.3
		c21.3-1.3,42.6-0.3,63.9-1.2c0,0,0,0,0,0c-0.8,4.1-4.2,2.7-6.6,2.7c-14.8,0.2-29.5,0.1-44.3,0.1C442.3,51.4,439.5,51,437.1,52.8z"
		/>
	<path fill="#FEF579" d="M437.1,52.8c1.6-3.5,4.9-2.7,7.7-2.7c14.7,0,29.4,0,44.1-0.1c2.4,0,5,0.8,7-1.4c1.1,0.6,1.2,1.6,1.3,2.7
		c-2,2.3-4.6,1.4-7,1.4C472.4,52.8,454.8,52.8,437.1,52.8z"/>
	<path fill="#56BB67" d="M498.5,288.8c0,1.4,0,2.7,0,4.1c-2.4,1.9-5.2,1.3-7.9,1.3c-156.2,0-312.4,0-468.6,0c-2.7,0-5.5,0.6-7.9-1.3
		c0-1.4,0-2.7,0-4.1C175.6,288.8,337,288.8,498.5,288.8z"/>
	<path fill="#39B557" d="M498.5,301.1c0,2.3-0.4,4.1-3.3,4.1c-1.6,0-3.2,0-4.8,0c-156.1,0-312.2,0-468.3-0.1c-3,0-8,2.5-8-4
		C175.6,301.1,337,301.1,498.5,301.1z"/>
	<path fill="#4DB962" d="M14.1,292.9c161.5,0,322.9,0,484.4,0c0,0.9,0,1.8,0,2.7c-161.4,0-322.9,0-484.3,0
		C14.1,294.7,14.1,293.8,14.1,292.9z"/>
	<path fill="#FEF35A" d="M498.4,65c0,1.4,0,2.7,0,4.1c-11.4,0-22.7,0.2-34.1,0c-48.2-0.9-96.3,0.4-144.4,1.8
		c-40.4,1.2-80.8,0.1-121.2,1c-7.5,0.2-14.8,1.9-22.3,1.4c-2.9-0.2-5.7,0-5.2-4.2c2-1.9,4.6-1.8,7.1-1.9c4.8-0.1,9.5-0.2,14.3-0.1
		c38.4,0.8,76.7-1.3,115.1-1.8c20.9-0.3,41.8,0.2,62.6-1c40-2.4,79.9-0.6,119.9-1.3C493,63,496,62.7,498.4,65z"/>
	<path fill="#FEF362" d="M498.4,65c-9.3,0-18.6,0.2-27.9,0c-50.2-0.9-100.3,0.7-150.5,1.8c-20.6,0.4-41.3-0.4-61.8,1.2
		c-29,2.2-58.1,0.5-87.1,1.1c0-0.9,0-1.8,0-2.7c2-1.9,4.5-1.8,7-2c21.5-1.6,43.2-0.4,64.7-1.4c42.5-2.1,85,0,127.4-1.6
		c20.4-0.8,40.9,0.3,61.2-1.2c19.3-1.5,38.6-0.6,57.9-1c3.1-0.1,6.4-0.5,9.1,1.9C498.4,62.3,498.4,63.7,498.4,65z"/>
	<path fill="#FEF469" d="M498.4,60.9c-39.1-0.9-78.1,0.7-117.1,1.8c-40,1.1-79.9-0.6-119.8,1.2c-21.8,1-43.6,0.1-65.3,1.3
		c-8.4,0.4-16.7,1.1-25.1,1.1c0-1.4,0-2.7,0-4.1c1.9-1.6,4.3-1.3,6.5-1.3c4.3-0.1,8.6-0.1,12.9,0c39.2,1,78.5-0.9,117.7-1.7
		c41.5-0.9,83-1.2,124.5-1.9c19.3-0.3,38.6-0.2,57.8-0.5c2.7,0,5.5-0.6,7.9,1.3C498.4,59.1,498.4,60,498.4,60.9z"/>
	<path fill="#FEF46D" d="M498.4,58.2c-8.9,0-17.7,0.1-26.6,0C420.7,57.3,369.7,59,318.6,60c-19.7,0.4-39.5-0.4-59.1,1.2
		c-29.5,2.3-59,0.5-88.4,1.2c0-0.9,0-1.8,0-2.7c25,0,50,1,74.9-0.3c22-1.2,44,0.3,65.9-1.3c28.8-2.1,57.6-0.8,86.4-1
		c33.3-0.2,66.6-2.5,100-1.5C498.4,56.4,498.4,57.3,498.4,58.2z"/>
</g>
</svg>
