<?xml version="1.0" encoding="utf-8"?>
<!-- Generator: Adobe Illustrator 18.0.0, SVG Export Plug-In . SVG Version: 6.00 Build 0)  -->
<!DOCTYPE svg PUBLIC "-//W3C//DTD SVG 1.1//EN" "http://www.w3.org/Graphics/SVG/1.1/DTD/svg11.dtd">
<svg version="1.1" id="Layer_1" xmlns="http://www.w3.org/2000/svg" xmlns:xlink="http://www.w3.org/1999/xlink" x="0px" y="0px"
	 viewBox="0 0 20 20" enable-background="new 0 0 20 20" xml:space="preserve">
<g>
	<linearGradient id="SVGID_1_" gradientUnits="userSpaceOnUse" x1="10" y1="0.2362" x2="10" y2="19.7638">
		<stop  offset="0" style="stop-color:#2F7AAF"/>
		<stop  offset="0.4839" style="stop-color:#378ECD"/>
		<stop  offset="0.4839" style="stop-color:#368CC9"/>
		<stop  offset="0.4839" style="stop-color:#3385BF"/>
		<stop  offset="0.4839" style="stop-color:#3280B8"/>
		<stop  offset="0.4839" style="stop-color:#307DB4"/>
		<stop  offset="0.4839" style="stop-color:#307CB3"/>
		<stop  offset="0.5554" style="stop-color:#3384BD"/>
		<stop  offset="0.6408" style="stop-color:#3589C5"/>
		<stop  offset="0.7537" style="stop-color:#368DCA"/>
		<stop  offset="1" style="stop-color:#378ECD"/>
	</linearGradient>
	<path fill="url(#SVGID_1_)" d="M16.8,0.2H3.2c-1.6,0-2.9,1.3-2.9,3v13.6c0,1.6,1.3,3,2.9,3h13.7c1.6,0,2.9-1.3,2.9-3V3.2
		C19.8,1.6,18.4,0.2,16.8,0.2z"/>
	<path fill="#106EAF" d="M16.8,20H3.2C1.4,20,0,18.6,0,16.8V3.2C0,1.4,1.4,0,3.2,0h13.7C18.6,0,20,1.4,20,3.2v13.6
		C20,18.6,18.6,20,16.8,20z M3.2,0.5c-1.5,0-2.7,1.2-2.7,2.7v13.6c0,1.5,1.2,2.7,2.7,2.7h13.7c1.5,0,2.7-1.2,2.7-2.7V3.2
		c0-1.5-1.2-2.7-2.7-2.7H3.2z"/>
</g>
<text transform="matrix(0.9918 0 0 1 4.1384 12.6472)" fill="#FFFFFF" font-family="'MyriadPro-Bold'" font-size="9.0236">OR</text>
</svg>
