<?xml version="1.0" encoding="utf-8"?>
<!-- Generator: Adobe Illustrator 18.0.0, SVG Export Plug-In . SVG Version: 6.00 Build 0)  -->
<!DOCTYPE svg PUBLIC "-//W3C//DTD SVG 1.1//EN" "http://www.w3.org/Graphics/SVG/1.1/DTD/svg11.dtd">
<svg version="1.1" id="Layer_1" xmlns="http://www.w3.org/2000/svg" xmlns:xlink="http://www.w3.org/1999/xlink" x="0px" y="0px"
	 viewBox="0 0 20 19.3" enable-background="new 0 0 20 19.3" xml:space="preserve">
<g>
	<g>
		<path fill="#4A81B7" d="M13.8,0.1c0,0.8,0.7,2,1.5,2c0.8,0,1.5-1.2,1.5-2"/>
		<path fill="#4A81B7" d="M20,0.1h-2.3v0.8c0,1.3-1,2.3-2.3,2.3c-1.3,0-2.3-1-2.3-2.3V0.1H6.9v0.8c0,1.3-1,2.3-2.3,2.3
			s-2.3-1-2.3-2.3V0.1L0,0.1v19.2h1.5h16.9l1.5,0L20,0.1z M18.5,17.8H1.5V5.5h16.9L18.5,17.8L18.5,17.8z"/>
		<path fill="#4A81B7" d="M3.1,0.1c0,0.8,0.7,2,1.5,2c0.8,0,1.5-1.2,1.5-2"/>
		<rect x="6.9" y="7.1" fill="#4A81B7" width="2.4" height="2.1"/>
		<rect x="3.1" y="7.1" fill="#4A81B7" width="2.4" height="2.1"/>
		<rect x="10.8" y="7.1" fill="#4A81B7" width="2.4" height="2.1"/>
		<rect x="14.5" y="7.1" fill="#4A81B7" width="2.4" height="2.1"/>
		<rect x="6.9" y="10.7" fill="#4A81B7" width="2.4" height="2.1"/>
		<rect x="10.8" y="10.7" fill="#4A81B7" width="2.4" height="2.1"/>
		<rect x="14.5" y="10.7" fill="#4A81B7" width="2.4" height="2.1"/>
		<rect x="6.9" y="14.3" fill="#4A81B7" width="2.4" height="2.1"/>
		<rect x="3.1" y="10.7" fill="#4A81B7" width="2.4" height="2.1"/>
		<rect x="3.1" y="14.3" fill="#4A81B7" width="2.4" height="2.1"/>
		<rect x="10.8" y="14.3" fill="#4A81B7" width="2.4" height="2.1"/>
		<rect x="14.5" y="14.3" fill="#4A81B7" width="2.4" height="2.1"/>
	</g>
	<path fill="#F68C22" d="M20,0.1h-2.3v0.8c0,1.3-1,2.3-2.3,2.3c-1.3,0-2.3-1-2.3-2.3V0.1H6.9v0.8c0,1.3-1,2.3-2.3,2.3
		s-2.3-1-2.3-2.3V0.1L0,0.1v5.4h1.5h16.9l1.5,0L20,0.1z M18.5,4H1.5v1.5h16.9L18.5,4L18.5,4z"/>
	<g id="check_1_">
		<polygon fill="#199C48" points="7.8,15.3 3.7,11.2 2.3,12.5 7.8,18 19.5,6.3 18.2,4.9 		"/>
	</g>
</g>
</svg>
