<?xml version="1.0" encoding="utf-8"?>
<!-- Generator: Adobe Illustrator 18.0.0, SVG Export Plug-In . SVG Version: 6.00 Build 0)  -->
<!DOCTYPE svg PUBLIC "-//W3C//DTD SVG 1.1//EN" "http://www.w3.org/Graphics/SVG/1.1/DTD/svg11.dtd">
<svg version="1.1" id="Layer_1" xmlns="http://www.w3.org/2000/svg" xmlns:xlink="http://www.w3.org/1999/xlink" x="0px" y="0px"
	 viewBox="0 0 20 20" enable-background="new 0 0 20 20" xml:space="preserve">
<g>
	<g>
		
			<linearGradient id="SVGID_1_" gradientUnits="userSpaceOnUse" x1="736.4689" y1="19.7638" x2="736.4689" y2="0.2362" gradientTransform="matrix(-1 0 0 1 746.4688 0)">
			<stop  offset="0" style="stop-color:#E6E7E8"/>
			<stop  offset="0.4785" style="stop-color:#EAEBEC"/>
			<stop  offset="0.4785" style="stop-color:#F3F3F4"/>
			<stop  offset="1" style="stop-color:#FFFFFF"/>
		</linearGradient>
		<path fill="url(#SVGID_1_)" d="M3.4,0.2h13.1c1.7,0,3.2,1.3,3.2,3v13.6c0,1.6-1.4,3-3.2,3H3.4c-1.7,0-3.2-1.3-3.2-3V3.2
			C0.3,1.6,1.7,0.2,3.4,0.2z"/>
		<path fill="#DEDDDD" d="M16.6,20H3.4C1.5,20,0,18.6,0,16.8V3.2C0,1.4,1.5,0,3.4,0h13.1C18.5,0,20,1.4,20,3.2v13.6
			C20,18.6,18.5,20,16.6,20z M3.4,0.5c-1.6,0-2.9,1.2-2.9,2.7v13.6c0,1.5,1.3,2.7,2.9,2.7h13.1c1.6,0,2.9-1.2,2.9-2.7V3.2
			c0-1.5-1.3-2.7-2.9-2.7H3.4z"/>
	</g>
	<g>
		<polyline fill="#106EAF" points="10,14.4 5.2,10 10,5.6 		"/>
		<polyline fill="#106EAF" points="14.8,14.4 10,10 14.8,5.6 		"/>
	</g>
</g>
</svg>
