<?xml version="1.0" encoding="utf-8"?>
<!-- Generator: Adobe Illustrator 18.0.0, SVG Export Plug-In . SVG Version: 6.00 Build 0)  -->
<!DOCTYPE svg PUBLIC "-//W3C//DTD SVG 1.1//EN" "http://www.w3.org/Graphics/SVG/1.1/DTD/svg11.dtd">
<svg version="1.1" id="Layer_1" xmlns="http://www.w3.org/2000/svg" xmlns:xlink="http://www.w3.org/1999/xlink" x="0px" y="0px"
	 viewBox="0 0 67 72" enable-background="new 0 0 67 72" xml:space="preserve">
<g>
	<g>
		
			<linearGradient id="SVGID_1_" gradientUnits="userSpaceOnUse" x1="-2.8368" y1="52.3139" x2="-2.8368" y2="71.8842" gradientTransform="matrix(-3.6 0 0 -3.6 23.2877 259.2)">
			<stop  offset="0" style="stop-color:#E6E7E8"/>
			<stop  offset="0.4785" style="stop-color:#EAEBEC"/>
			<stop  offset="0.4785" style="stop-color:#F3F3F4"/>
			<stop  offset="1" style="stop-color:#FFFFFF"/>
		</linearGradient>
		<path fill="url(#SVGID_1_)" d="M11.3,0.8h44.4c5.6,0,10.6,4.9,10.6,10.6v49.3c0,5.6-4.9,10.6-10.6,10.6H11.3
			c-5.6,0-10.6-4.9-10.6-10.6V11.3C0.7,5,5,0.8,11.3,0.8z"/>
		<path fill="#DEDDDD" d="M55,71.9H11.3C5,71.9,0,67,0,60.7V11.3C0,5,5,0.1,11.3,0.1h44.4C62,0.1,67,5,67,11.3v49.3
			C67,66.3,61.3,71.9,55,71.9z M11.3,1.5c-5.6,0-9.9,4.2-9.9,9.9v49.3c0,5.6,4.2,9.9,9.9,9.9h44.4c5.6,0,9.9-4.2,9.9-9.9V11.3
			c0-5.6-4.2-9.9-9.9-9.9H11.3z"/>
	</g>
	<circle fill="#C4C4C3" cx="33.1" cy="36" r="17.6"/>
	<g id="chevron-right_9_">
		<polygon fill="#FFFFFF" points="29.6,25.4 26.8,27.5 34.6,36 26.8,43.7 29.6,45.9 39.5,36 		"/>
	</g>
</g>
</svg>
