<?xml version="1.0" encoding="utf-8"?>
<!-- Generator: Adobe Illustrator 18.0.0, SVG Export Plug-In . SVG Version: 6.00 Build 0)  -->
<!DOCTYPE svg PUBLIC "-//W3C//DTD SVG 1.1//EN" "http://www.w3.org/Graphics/SVG/1.1/DTD/svg11.dtd">
<svg version="1.1" id="Layer_1" xmlns="http://www.w3.org/2000/svg" xmlns:xlink="http://www.w3.org/1999/xlink" x="0px" y="0px"
	 viewBox="0 0 20 20" enable-background="new 0 0 20 20" xml:space="preserve">
<g>
	<linearGradient id="SVGID_1_" gradientUnits="userSpaceOnUse" x1="0.1913" y1="10.018" x2="19.7723" y2="10.018">
		<stop  offset="0" style="stop-color:#A92523"/>
		<stop  offset="1" style="stop-color:#ED1C24"/>
	</linearGradient>
	<path fill="url(#SVGID_1_)" d="M13,10l6.6-6.6c0.2-0.2,0.2-0.4,0-0.6l-2.5-2.5c-0.1-0.1-0.2-0.1-0.3-0.1s-0.2,0-0.3,0.1L10,7
		L3.3,0.3c-0.2-0.2-0.4-0.2-0.6,0L0.3,2.8C0.2,3,0.2,3.2,0.3,3.4L7,10l-6.6,6.6c-0.2,0.2-0.2,0.4,0,0.6l2.5,2.5
		c0.1,0.1,0.2,0.1,0.3,0.1s0.2,0,0.3-0.1L10,13l6.6,6.6c0.1,0.1,0.2,0.1,0.3,0.1c0.1,0,0.2,0,0.3-0.1l2.5-2.5c0.2-0.2,0.2-0.4,0-0.6
		L13,10z"/>
	<path fill="#64130C" d="M16.9,20c-0.2,0-0.3-0.1-0.4-0.2L10,13.3l-6.5,6.5C3.4,19.9,3.2,20,3.1,20c-0.2,0-0.3-0.1-0.4-0.2l-2.5-2.5
		C0.1,17.3,0,17.1,0,16.9c0-0.2,0.1-0.3,0.2-0.4L6.7,10L0.2,3.5C0.1,3.4,0,3.2,0,3.1c0-0.2,0.1-0.3,0.2-0.4l2.5-2.5
		C2.7,0.1,2.9,0,3.1,0c0.2,0,0.3,0.1,0.4,0.2L10,6.7l6.5-6.5C16.6,0.1,16.8,0,16.9,0c0.2,0,0.3,0.1,0.4,0.2l2.5,2.5
		c0.2,0.2,0.2,0.6,0,0.8L13.3,10l6.5,6.5c0.2,0.2,0.2,0.6,0,0.8l-2.5,2.5C17.2,19.9,17.1,20,16.9,20z M10,12.8l6.8,6.8
		c0,0,0.1,0.1,0.2,0.1c0.1,0,0.1,0,0.2-0.1l2.5-2.5c0.1-0.1,0.1-0.2,0-0.3L12.7,10l6.8-6.8c0.1-0.1,0.1-0.2,0-0.3l-2.5-2.5
		c0,0-0.1-0.1-0.2-0.1c-0.1,0-0.1,0-0.2,0.1L10,7.3L3.2,0.5c0,0-0.1-0.1-0.2-0.1c-0.1,0-0.1,0-0.2,0.1L0.4,2.9c0,0-0.1,0.1-0.1,0.2
		c0,0.1,0,0.1,0.1,0.2L7.2,10l-6.8,6.8c0,0-0.1,0.1-0.1,0.2s0,0.1,0.1,0.2l2.5,2.5c0,0,0.1,0.1,0.2,0.1c0.1,0,0.1,0,0.2-0.1L10,12.8
		z"/>
</g>
</svg>
