<?xml version="1.0" encoding="utf-8"?>
<!-- Generator: Adobe Illustrator 18.0.0, SVG Export Plug-In . SVG Version: 6.00 Build 0)  -->
<!DOCTYPE svg PUBLIC "-//W3C//DTD SVG 1.1//EN" "http://www.w3.org/Graphics/SVG/1.1/DTD/svg11.dtd">
<svg version="1.1" id="Layer_1" xmlns="http://www.w3.org/2000/svg" xmlns:xlink="http://www.w3.org/1999/xlink" x="0px" y="0px"
	 viewBox="0 0 20 15.4" enable-background="new 0 0 20 15.4" xml:space="preserve">
<g>
	<g>
		<linearGradient id="SVGID_1_" gradientUnits="userSpaceOnUse" x1="10.0184" y1="0.2186" x2="10.0184" y2="15.1564">
			<stop  offset="0" style="stop-color:#2F7AAF"/>
			<stop  offset="0.4839" style="stop-color:#378ECD"/>
			<stop  offset="0.4839" style="stop-color:#368CC9"/>
			<stop  offset="0.4839" style="stop-color:#3385BF"/>
			<stop  offset="0.4839" style="stop-color:#3280B8"/>
			<stop  offset="0.4839" style="stop-color:#307DB4"/>
			<stop  offset="0.4839" style="stop-color:#307CB3"/>
			<stop  offset="0.5554" style="stop-color:#3384BD"/>
			<stop  offset="0.6408" style="stop-color:#3589C5"/>
			<stop  offset="0.7537" style="stop-color:#368DCA"/>
			<stop  offset="1" style="stop-color:#378ECD"/>
		</linearGradient>
		<path fill="url(#SVGID_1_)" d="M17.6,0.2H2.4c-1.2,0-2.3,1-2.3,2.3v10.4c0,1.2,1,2.3,2.3,2.3h15.2c1.2,0,2.3-1,2.3-2.3V2.5
			C19.9,1.2,18.8,0.2,17.6,0.2z"/>
		<path fill="#106EAF" d="M17.6,15.3H2.4c-1.3,0-2.4-1.1-2.4-2.4V2.5C0,1.1,1.1,0,2.4,0h15.2C18.9,0,20,1.1,20,2.5v10.4
			C20,14.2,18.9,15.3,17.6,15.3z M2.4,0.4c-1.1,0-2.1,0.9-2.1,2.1v10.4C0.4,14,1.3,15,2.4,15h15.2c1.1,0,2.1-0.9,2.1-2.1V2.5
			c0-1.1-0.9-2.1-2.1-2.1H2.4z"/>
	</g>
	<text transform="matrix(1 0 0 1 2.9717 9.7147)" fill="#FFFFFF" font-family="'MyriadPro-Bold'" font-size="6.9026">AND</text>
</g>
</svg>
