<?xml version="1.0" encoding="utf-8"?>
<!-- Generator: Adobe Illustrator 18.0.0, SVG Export Plug-In . SVG Version: 6.00 Build 0)  -->
<!DOCTYPE svg PUBLIC "-//W3C//DTD SVG 1.1//EN" "http://www.w3.org/Graphics/SVG/1.1/DTD/svg11.dtd">
<svg version="1.1" id="Layer_1" xmlns="http://www.w3.org/2000/svg" xmlns:xlink="http://www.w3.org/1999/xlink" x="0px" y="0px"
	 viewBox="0 0 20 20" enable-background="new 0 0 20 20" xml:space="preserve">
<g>
	<linearGradient id="SVGID_1_" gradientUnits="userSpaceOnUse" x1="4.1769" y1="16.2084" x2="17.8157" y2="1.6665">
		<stop  offset="0" style="stop-color:#A92523"/>
		<stop  offset="1" style="stop-color:#ED1C24"/>
	</linearGradient>
	<path fill="url(#SVGID_1_)" d="M9.9,0C4.4,0.1,0,4.6,0,10.1C0.1,15.6,4.6,20,10.1,20c5.5-0.1,9.9-4.6,9.8-10.1
		C19.9,4.4,15.4,0,9.9,0z M9.8,16.1L9.8,16.1c-0.9,0-1.5-0.7-1.5-1.5c0-0.8,0.6-1.4,1.5-1.4l0,0c0.9,0,1.5,0.6,1.4,1.5
		C11.3,15.5,10.7,16.1,9.8,16.1z M13.4,9c-0.2,0.3-0.6,0.6-1.2,1.1l-0.6,0.4c-0.3,0.3-0.5,0.5-0.6,0.7c-0.1,0.2-0.1,0.2-0.1,0.6
		l0,0.1H8.6l0-0.2c0-0.8,0-1.3,0.4-1.7c0.5-0.6,1.7-1.4,1.7-1.4c0.2-0.1,0.3-0.3,0.4-0.4c0.2-0.3,0.4-0.6,0.4-0.9
		c0-0.4-0.1-0.7-0.3-1C10.9,6.1,10.6,6,10,6C9.4,6,9.1,6.1,8.8,6.5C8.6,6.9,8.5,7.3,8.5,7.7v0.1H6.1l0-0.1c0.1-1.5,0.6-2.5,1.6-3.1
		C8.3,4.1,9,3.9,9.9,3.9c1.2,0,2.1,0.3,2.9,0.8C13.6,5.3,14,6.2,14,7.3C14,7.9,13.8,8.5,13.4,9z"/>
</g>
</svg>
