<?xml version="1.0" encoding="utf-8"?>
<!-- Generator: Adobe Illustrator 18.0.0, SVG Export Plug-In . SVG Version: 6.00 Build 0)  -->
<!DOCTYPE svg PUBLIC "-//W3C//DTD SVG 1.1//EN" "http://www.w3.org/Graphics/SVG/1.1/DTD/svg11.dtd">
<svg version="1.1" id="Layer_1" xmlns="http://www.w3.org/2000/svg" xmlns:xlink="http://www.w3.org/1999/xlink" x="0px" y="0px"
	 viewBox="0 0 18.7 20" enable-background="new 0 0 18.7 20" xml:space="preserve">
<g>
	<g>
		
			<linearGradient id="SVGID_1_" gradientUnits="userSpaceOnUse" x1="493.8439" y1="19.7338" x2="493.8439" y2="0.2358" gradientTransform="matrix(1 0 0 1 -484.5431 0)">
			<stop  offset="0" style="stop-color:#E6E7E8"/>
			<stop  offset="0.4785" style="stop-color:#EAEBEC"/>
			<stop  offset="0.4785" style="stop-color:#F3F3F4"/>
			<stop  offset="1" style="stop-color:#FFFFFF"/>
		</linearGradient>
		<path fill="url(#SVGID_1_)" d="M15.4,0.2H3.2c-1.6,0-3,1.3-3,3v13.6c0,1.6,1.3,3,3,3h12.2c1.6,0,3-1.3,3-3V3.2
			C18.4,1.6,17,0.2,15.4,0.2z"/>
		<path fill="#DEDDDD" d="M15.4,20H3.2C1.4,20,0,18.5,0,16.8V3.2C0,1.4,1.4,0,3.2,0h12.2c1.8,0,3.2,1.4,3.2,3.2v13.6
			C18.6,18.5,17.2,20,15.4,20z M3.2,0.5c-1.5,0-2.7,1.2-2.7,2.7v13.6c0,1.5,1.2,2.7,2.7,2.7h12.2c1.5,0,2.7-1.2,2.7-2.7V3.2
			c0-1.5-1.2-2.7-2.7-2.7H3.2z"/>
	</g>
	<g>
		<polyline fill="#106EAF" points="9.3,14.4 13.7,10 9.3,5.6 		"/>
		<polyline fill="#106EAF" points="4.9,14.4 9.3,10 4.9,5.6 		"/>
	</g>
</g>
</svg>
