<?xml version="1.0" encoding="utf-8"?>
<!-- Generator: Adobe Illustrator 18.0.0, SVG Export Plug-In . SVG Version: 6.00 Build 0)  -->
<!DOCTYPE svg PUBLIC "-//W3C//DTD SVG 1.1//EN" "http://www.w3.org/Graphics/SVG/1.1/DTD/svg11.dtd">
<svg version="1.1" id="Layer_1" xmlns="http://www.w3.org/2000/svg" xmlns:xlink="http://www.w3.org/1999/xlink" x="0px" y="0px"
	 viewBox="0 0 18.6 20" enable-background="new 0 0 18.6 20" xml:space="preserve">
<g>
	<g>
		<linearGradient id="SVGID_1_" gradientUnits="userSpaceOnUse" x1="9.2007" y1="19.5214" x2="9.2007" y2="0.2333">
			<stop  offset="0" style="stop-color:#E6E7E8"/>
			<stop  offset="0.4785" style="stop-color:#EAEBEC"/>
			<stop  offset="0.4785" style="stop-color:#F3F3F4"/>
			<stop  offset="1" style="stop-color:#FFFFFF"/>
		</linearGradient>
		<path fill="url(#SVGID_1_)" d="M15.2,0.2H3.2c-1.6,0-2.9,1.3-2.9,2.9v13.5c0,1.6,1.3,2.9,2.9,2.9h12.1c1.6,0,2.9-1.3,2.9-2.9V3.2
			C18.2,1.5,16.9,0.2,15.2,0.2z"/>
		<path fill="#DEDDDD" d="M15.2,19.8H3.2c-1.7,0-3.2-1.4-3.2-3.2V3.2C0,1.4,1.4,0,3.2,0h12.1c1.7,0,3.2,1.4,3.2,3.2v13.5
			C18.4,18.3,17,19.8,15.2,19.8z M3.2,0.5c-1.5,0-2.7,1.2-2.7,2.7v13.5c0,1.5,1.2,2.7,2.7,2.7h12.1c1.5,0,2.7-1.2,2.7-2.7V3.2
			c0-1.5-1.2-2.7-2.7-2.7H3.2z"/>
	</g>
	<circle fill="#106EAF" cx="9.2" cy="9.9" r="4.7"/>
	<g id="chevron-right">
		<polygon fill="#FFFFFF" points="8.1,7.1 7.5,7.7 9.6,9.9 7.5,12 8.1,12.7 10.9,9.9 		"/>
	</g>
</g>
</svg>
