<?xml version="1.0" encoding="utf-8"?>
<!-- Generator: Adobe Illustrator 18.0.0, SVG Export Plug-In . SVG Version: 6.00 Build 0)  -->
<!DOCTYPE svg PUBLIC "-//W3C//DTD SVG 1.1//EN" "http://www.w3.org/Graphics/SVG/1.1/DTD/svg11.dtd">
<svg version="1.1" id="Layer_1" xmlns="http://www.w3.org/2000/svg" xmlns:xlink="http://www.w3.org/1999/xlink" x="0px" y="0px"
	 viewBox="0 0 18.7 20" enable-background="new 0 0 18.7 20" xml:space="preserve">
<g>
	<g>
		
			<linearGradient id="SVGID_1_" gradientUnits="userSpaceOnUse" x1="337.1765" y1="19.5677" x2="337.1765" y2="0.3645" gradientTransform="matrix(-1 0 0 1 346.4688 0)">
			<stop  offset="0" style="stop-color:#E6E7E8"/>
			<stop  offset="0.4785" style="stop-color:#EAEBEC"/>
			<stop  offset="0.4785" style="stop-color:#F3F3F4"/>
			<stop  offset="1" style="stop-color:#FFFFFF"/>
		</linearGradient>
		<path fill="url(#SVGID_1_)" d="M3.3,0.4h12c1.6,0,2.9,1.3,2.9,2.9v13.4c0,1.6-1.3,2.9-2.9,2.9h-12c-1.6,0-2.9-1.3-2.9-2.9V3.3
			C0.4,1.7,1.7,0.4,3.3,0.4z"/>
		<path fill="#DEDDDD" d="M15.3,19.9h-12c-1.8,0-3.3-1.5-3.3-3.3V3.3C0,1.5,1.5,0,3.3,0h12c1.8,0,3.3,1.5,3.3,3.3v13.4
			C18.6,18.5,17.1,19.9,15.3,19.9z M3.3,0.7c-1.4,0-2.5,1.1-2.5,2.5v13.4c0,1.4,1.1,2.5,2.5,2.5h12c1.4,0,2.5-1.1,2.5-2.5V3.3
			c0-1.4-1.1-2.5-2.5-2.5H3.3z"/>
	</g>
	<g>
		<path fill="#4A81B7" d="M5.9,9.3c0.3,0,0.5-0.2,0.6-0.4C7,7.8,8.1,7,9.3,7c0.7,0,1.3,0.2,1.8,0.6l-0.4,0.1c-0.1,0-0.2,0.1-0.3,0.3
			c0,0.1,0.1,0.3,0.2,0.3l2.1,1c0.1,0,0.2,0,0.3,0c0.1-0.1,0.1-0.2,0.1-0.3l0-2.3c0-0.1-0.1-0.3-0.2-0.3c-0.1,0-0.3,0-0.3,0.1
			l-0.3,0.4c-0.8-0.8-1.9-1.2-3-1.2c-1.8,0-3.3,1.1-4,2.6C5.2,8.5,5.2,8.7,5.4,8.9C5.5,9.1,5.7,9.3,5.9,9.3z"/>
		<path fill="#4A81B7" d="M13.2,11c-0.1-0.2-0.3-0.3-0.6-0.3c-0.3,0-0.5,0.2-0.6,0.4c-0.4,1.1-1.5,1.8-2.7,1.8
			c-0.7,0-1.3-0.2-1.8-0.6l0.4-0.1c0.1,0,0.2-0.1,0.3-0.3c0-0.1-0.1-0.3-0.2-0.3l-2.1-1c-0.1,0-0.2,0-0.3,0
			c-0.1,0.1-0.1,0.2-0.1,0.3l0,2.3c0,0.1,0.1,0.3,0.2,0.3c0.1,0,0.3,0,0.3-0.1L6.3,13c0.8,0.8,1.9,1.2,3,1.2c1.8,0,3.3-1.1,4-2.6
			C13.4,11.4,13.3,11.2,13.2,11z"/>
	</g>
</g>
</svg>
